<?xml version="1.0" encoding="UTF-8" standalone="no"?>
<svg
   xmlns:dc="http://purl.org/dc/elements/1.1/"
   xmlns:cc="http://creativecommons.org/ns#"
   xmlns:rdf="http://www.w3.org/1999/02/22-rdf-syntax-ns#"
   xmlns:svg="http://www.w3.org/2000/svg"
   xmlns="http://www.w3.org/2000/svg"
   width="1024"
   height="1024"
   viewBox="0 0 270.93333 270.93334"
   version="1.1"
   id="svg8">
  <defs
     id="defs2" />
  <metadata
     id="metadata5">
    <rdf:RDF>
      <cc:Work
         rdf:about="">
        <dc:format>image/svg+xml</dc:format>
        <dc:type
           rdf:resource="http://purl.org/dc/dcmitype/StillImage" />
        <dc:title></dc:title>
      </cc:Work>
    </rdf:RDF>
  </metadata>
  <g
     id="layer1">
    <circle
       style="fill:none;stroke:none;stroke-width:0.264583;stroke-opacity:1"
       id="path965"
       cx="135.46666"
       cy="135.46666"
       r="135.46666" />
    <path
       id="path885"
       style="fill:#5599ff;stroke:none;stroke-width:0.99999899999999997px;stroke-linecap:butt;stroke-linejoin:miter;stroke-opacity:1"
       d="M 599.91797 124.89453 C 571.13572 124.76245 561.48252 131.47967 561.47266 199.2793 C 561.46132 274.09268 561.18125 484.41608 561.47266 542.56445 C 561.76406 600.71282 504.82469 623.85124 408.26562 623.80664 C 311.70655 623.76204 206.13636 699.26333 205.91992 787.58008 C 205.70347 875.89683 261.89866 893.18208 366.67578 892.90625 C 471.4529 892.63034 575.2465 822.43118 576.01953 670.56836 C 576.79256 518.70554 577.67963 387.47903 578.10547 338.91992 C 578.53131 290.36082 613.29749 265.6534 666.20312 282.19141 C 719.10876 298.72941 796.89793 334.57165 858.21094 248.73633 C 818.81125 275.53585 761.51119 270.95972 708.38672 199.2793 C 655.26228 127.59887 645.7137 126.16482 609.47461 125.0957 C 606.07719 124.99547 602.89544 124.90819 599.91797 124.89453 z M 432.1875 638.73047 A 108.26572 168.41333 67.211762 0 1 537.51367 692.74023 A 108.26572 168.41333 67.211762 0 1 424.17969 857.78516 A 108.26572 168.41333 67.211762 0 1 226.97852 823.20117 A 108.26572 168.41333 67.211762 0 1 340.3125 658.15625 A 108.26572 168.41333 67.211762 0 1 432.1875 638.73047 z "
       transform="scale(0.26458333)" />
    <path
       style="fill:#000080;stroke:none;stroke-width:0.264583px;stroke-linecap:butt;stroke-linejoin:miter;stroke-opacity:1"
       d="M 151.63536,33 H 90 v 5 c 14.52347,-0.629332 26.06658,4.270492 26,18 0,0 0.33577,138.27571 0,144 -0.33577,5.72429 -0.55132,26.03656 -19.399809,28.60762 h -4.233473 c 0,0 -12.446733,0.3863 -4.233476,-11.9307 8.213257,-12.317 -2.699886,-29.61901 -15.779314,-30.01918 -13.079428,-0.40017 -18.07281,13.65112 -17.703619,25.7857 0.369191,12.13458 9.304967,23.74993 39.255853,23.86141 C 123.85705,236.41633 143.3003,220.20962 144,200 c 0.6997,-20.20962 0,-144 0,-144 0.578,-12.912325 4.03974,-18.134677 7.63536,-23 z"
       id="path60" />
  </g>
</svg>
