<?xml version="1.0" standalone="no"?>
<!DOCTYPE svg PUBLIC "-//W3C//DTD SVG 20010904//EN"
 "http://www.w3.org/TR/2001/REC-SVG-20010904/DTD/svg10.dtd">
<svg version="1.0" xmlns="http://www.w3.org/2000/svg"
 width="512.000000pt" height="512.000000pt" viewBox="0 0 512.000000 512.000000"
 preserveAspectRatio="xMidYMid meet">

<g transform="translate(0.000000,512.000000) scale(0.100000,-0.100000)"
fill="#000000" stroke="none">
<path d="M2345 4629 c-468 -48 -882 -243 -1229 -579 -486 -470 -708 -1121
-610 -1789 90 -614 463 -1164 1013 -1492 499 -298 1121 -366 1681 -183 622
202 1121 700 1330 1324 204 609 112 1288 -246 1821 -116 174 -284 356 -359
390 -50 23 -119 24 -167 1 -21 -10 -217 -195 -470 -442 -238 -234 -516 -504
-618 -600 -102 -96 -297 -285 -435 -420 -137 -135 -375 -366 -528 -514 -236
-230 -279 -275 -288 -310 -15 -55 1 -106 46 -145 35 -31 37 -31 153 -32 64 0
279 -4 477 -8 546 -11 721 5 940 83 358 128 551 398 480 671 -59 225 -325 452
-606 517 -27 6 -48 15 -47 18 2 4 28 28 58 55 30 26 241 228 468 449 228 221
420 405 428 409 34 19 72 -11 179 -144 280 -347 434 -839 395 -1265 -20 -228
-67 -414 -154 -611 -243 -554 -749 -961 -1335 -1073 -674 -129 -1343 126
-1784 680 -279 350 -426 829 -388 1267 75 865 715 1550 1560 1667 128 18 377
21 501 6 147 -19 280 -50 431 -101 195 -66 245 -64 284 11 33 64 9 128 -63
164 -80 40 -312 114 -443 140 -209 43 -453 56 -654 35z m448 -1934 c126 -33
227 -107 273 -201 23 -46 26 -64 23 -127 -10 -193 -184 -360 -444 -426 -130
-33 -224 -42 -531 -48 -296 -6 -317 -4 -297 30 9 15 703 689 771 750 37 33 48
37 95 37 29 0 79 -7 110 -15z"/>
</g>
</svg>
