<?xml version="1.0" encoding="UTF-8" standalone="no"?>
<svg
   xmlns:dc="http://purl.org/dc/elements/1.1/"
   xmlns:cc="http://creativecommons.org/ns#"
   xmlns:rdf="http://www.w3.org/1999/02/22-rdf-syntax-ns#"
   xmlns:svg="http://www.w3.org/2000/svg"
   xmlns="http://www.w3.org/2000/svg"
   version="1.0"
   width="512.000000pt"
   height="512.000000pt"
   viewBox="0 0 512.000000 512.000000"
   preserveAspectRatio="xMidYMid meet"
   id="svg93">
  <!-- Removed metadata and defs block -->
  <g
     transform="translate(0.000000,512.000000) scale(0.100000,-0.100000)"
     fill="#000000"
     stroke="none"
     id="g91">
    <path
       id="path89"
       d="M 2345,4629 C 1377.2884,4546.5748 547.93363,3694.6072 489.10715,2725.7746 419.16151,1945.5173 844.55648,1159.897 1519,769 2236.7307,332.09635 3219.159,407.97295 3862.6473,948.08401 c 615.603,488.74819 908.9109,1341.04709 717.3307,2104.34769 -96.8138,400.0394 -307.8095,780.7811 -622.7768,1049.1855 -220.7992,130.8171 -358.9921,-157.0281 -512.5877,-269.6067 -661.0447,-650.9793 -1339.7576,-1284.2579 -1992.76,-1943.1882 -146.5805,-277.5585 193.333,-278.2774 505.6758,-275.3291 312.3429,2.9483 877.9487,-35.1513 1287.6854,223.4366 225.059,129.2937 370.8526,432.3913 227.7003,673.0598 C 3347.4054,2737.7494 3106.4124,2876.1513 2862,2940 c 322.276,299.7578 631.6796,613.2736 954,913 208.0403,-84.3053 315.7075,-349.8735 420.3625,-544.6745 C 4559.2819,2621.5887 4370.0377,1755.8029 3821.8976,1240.5177 3297.5731,719.57583 2443.2122,573.0161 1780.134,904.87268 1059.4597,1242.9214 602.62936,2077.8152 749.5957,2866.9834 c 113.80999,738.088 720.8708,1371.2022 1460.7971,1494.3956 370.9189,66.5065 754.3589,19.3889 1105.885,-112.2992 97.9156,-40.9496 243.602,121.646 41.1753,240.014 C 3155.0264,4607.4618 2688.1565,4662.6906 2345,4629 Z m 448,-1934 c 245.2667,-34.3809 397.0007,-334.6479 219.6758,-530.2012 -228.6817,-282.4655 -622.8716,-265.5411 -951.0103,-272.8242 -88.4642,-5.6924 -361.9326,-24.3915 -175.9988,100.582 249.0132,236.2627 484.6472,489.9285 746.0833,711.3184 52.7026,14.0199 109.0653,1.8078 161.25,-8.875 z" />
  </g>
</svg>
